<?xml version="1.0" encoding="UTF-8" standalone="no"?>
<!-- Created with Inkscape (http://www.inkscape.org/) -->

<svg
   width="46.646835mm"
   height="51.565498mm"
   viewBox="0 0 46.646835 51.565498"
   version="1.1"
   id="svg1"
   xml:space="preserve"
   xmlns="http://www.w3.org/2000/svg"
   xmlns:svg="http://www.w3.org/2000/svg"><defs
     id="defs1" /><g
     id="layer1"
     transform="translate(-74.965158,-79.118932)"><g
       id="g1"><path
         style="fill:#000000"
         d="m 85.868904,130.41533 c -1.463506,-0.54551 -3.244724,-2.11845 -3.876237,-3.42298 -0.528037,-1.09078 -0.554074,-1.55459 -0.554074,-9.8697 v -8.72513 l -1.124479,-0.30286 c -1.557177,-0.4194 -3.552067,-1.80502 -4.363054,-3.0305 -1.70585,-2.57772 -1.121836,-7.359181 1.163822,-9.528503 0.916988,-0.870316 2.442356,-1.53539 3.521463,-1.53539 0.790664,0 0.802332,-0.02006 0.808058,-1.389063 0.0032,-0.773798 0.222207,-1.865497 0.494361,-2.464693 1.865512,-4.107261 6.008737,-5.069394 10.313785,-2.39505 0.528001,0.328001 1.640375,0.981509 2.471943,1.452242 l 1.51194,0.855878 0.409762,-0.980698 c 0.225369,-0.539384 0.378433,-1.0094 0.340143,-1.04448 -0.03829,-0.03508 -0.743314,-0.46782 -1.56672,-0.961646 -1.222199,-0.732996 -1.451692,-0.979004 -1.24981,-1.339747 0.221051,-0.394996 0.407975,-0.345888 1.761684,0.462826 l 1.514394,0.904708 0.593998,-0.717326 c 0.326699,-0.39453 0.59459,-0.811541 0.595312,-0.926693 7.23e-4,-0.115151 -0.593998,-0.579432 -1.321602,-1.031736 -1.235407,-0.767971 -1.556166,-1.215579 -1.15708,-1.614665 0.202331,-0.20233 1.513414,0.440855 2.682138,1.315793 l 0.8636,0.646513 0.674289,-0.530394 c 0.37085,-0.291716 1.07126,-0.661408 1.55646,-0.821537 0.57947,-0.191242 0.99286,-0.558387 1.20477,-1.06998 0.17744,-0.42836 0.67259,-1.330705 1.10035,-2.00521 l 0.77774,-1.226374 0.64377,0.604782 c 0.35406,0.332631 1.03207,1.177547 1.50667,1.877594 0.47461,0.700046 1.04151,1.277044 1.25979,1.282218 0.64235,0.01523 2.97454,1.187478 3.87466,1.947557 0.70829,0.598101 1.08187,0.703051 2.51354,0.706127 0.92488,0.002 1.95282,0.07628 2.28433,0.16509 0.7088,0.189895 0.66022,0.491742 -0.46249,2.874005 -0.67694,1.436373 -0.73492,1.78082 -0.60912,3.618203 l 0.13905,2.030703 1.68661,0.830317 c 1.47274,0.725027 1.65308,0.89297 1.42219,1.324393 -0.2545,0.475535 -0.30663,0.470981 -1.38941,-0.121381 -1.95157,-1.067665 -2.18615,-1.06789 -2.51315,-0.0024 -0.28264,0.920918 -0.26723,0.953146 0.76845,1.606939 0.58128,0.366946 1.2264,0.73223 1.43361,0.811742 0.43696,0.16768 0.50038,0.774057 0.10641,1.017542 -0.14868,0.09189 -0.86484,-0.198741 -1.59147,-0.645843 -0.72664,-0.447102 -1.43032,-0.812913 -1.56375,-0.812913 -0.13342,0 -0.48739,0.343795 -0.7866,0.763989 -0.64934,0.911916 -0.83839,0.725439 2.98306,2.942491 3.09675,1.79662 4.1695,2.90799 4.69798,4.86711 0.61802,2.2911 -0.29773,5.0756 -2.14598,6.5252 -0.88241,0.69209 -26.118509,15.40042 -28.542617,16.63547 -1.458957,0.74332 -3.552035,0.93594 -4.862489,0.44747 z m 4.527098,-1.58059 c 0.675977,-0.34083 7.241706,-4.0985 14.590508,-8.35038 8.79062,-5.08609 13.64995,-8.05052 14.20477,-8.66562 1.43573,-1.59171 1.63517,-3.94882 0.51673,-6.1069 -0.37815,-0.72965 -2.84933,-2.71574 -3.37905,-2.71574 -0.0957,0 -0.5523,0.35339 -1.01467,0.78532 -1.59114,1.48634 -3.98002,1.39136 -5.59379,-0.22241 -1.09349,-1.09349 -1.5409,-2.79641 -1.06357,-4.048144 0.33248,-0.871872 0.65645,-0.617462 -4.64433,-3.647144 l -4.281197,-2.446938 -1.017773,0.817905 c -1.424972,1.145138 -3.003153,1.321891 -4.55546,0.510201 -1.630106,-0.85237 -2.206859,-1.995584 -2.05615,-4.075611 l 0.11674,-1.611197 -1.521047,-0.836199 c -2.467977,-1.356778 -5.336445,-0.924964 -7.001645,1.054014 -1.035951,1.231158 -1.196101,2.382356 -1.197666,8.609144 -0.0013,5.359729 0.03871,5.881519 0.461545,6.011699 0.254661,0.0784 2.158038,0.49368 4.229727,0.92283 4.453679,0.92258 6.366846,1.72994 8.076592,3.40835 3.232931,3.17368 3.195432,8.8528 -0.07798,11.81014 -1.296864,1.17164 -2.35448,1.25647 -3.342816,0.26814 -0.916449,-0.91645 -0.737133,-2.21217 0.568723,-4.10954 0.826324,-1.20062 0.96062,-1.58537 0.847788,-2.42887 -0.306862,-2.29402 -1.894597,-3.27223 -6.941279,-4.27657 -1.863504,-0.37086 -3.486196,-0.67429 -3.605982,-0.67429 -0.321747,0 -0.267347,15.81824 0.05843,16.99127 0.858962,3.09282 4.569512,4.56605 7.622849,3.02654 z m 3.998476,-9.60005 c 1.219324,-1.02599 1.920721,-2.60759 2.068331,-4.66394 0.160123,-2.23067 -0.384596,-3.79613 -1.88869,-5.42788 -1.674273,-1.81638 -2.823622,-2.26637 -8.93473,-3.49815 -4.936849,-0.99509 -6.575035,-1.67417 -7.196117,-2.983 -0.582998,-1.22858 -0.560721,-2.10426 0.08577,-3.37148 0.584756,-1.146217 1.203112,-1.585806 2.2307,-1.585806 0.638234,0 0.678853,-0.07916 0.678853,-1.322917 0,-1.269437 -0.02941,-1.322476 -0.727604,-1.312011 -0.400183,0.006 -1.263386,0.273889 -1.91823,0.595313 -0.973656,0.477909 -1.333931,0.871319 -1.977025,2.158855 -0.652951,1.30727 -0.785069,1.890958 -0.778552,3.439586 0.0086,2.04322 0.376699,2.99721 1.607477,4.16605 1.195537,1.13537 2.840775,1.71193 7.699362,2.69816 6.30618,1.28007 8.195273,2.22058 8.794771,4.37859 0.559707,2.01478 0.325653,3.03087 -1.099143,4.77168 -0.85161,1.04049 -0.940916,1.63237 -0.337366,2.23592 0.55889,0.55889 0.729978,0.53069 1.692195,-0.27897 z m 20.037052,-16.11625 c 0.33503,-0.21952 0.60708,-0.54521 0.60455,-0.72375 -0.004,-0.30765 -4.52433,-2.991649 -4.86258,-2.887439 -0.088,0.0271 -0.28884,0.346779 -0.44643,0.710409 -0.22732,0.52452 -0.18632,0.86623 0.19843,1.65364 0.86068,1.76142 2.87169,2.31801 4.50603,1.24714 z m -32.992937,-1.97442 c 0,-2.321646 -0.01553,-2.381253 -0.620452,-2.381253 -1.355222,0 -2.235098,2.279423 -1.382286,3.580983 0.390539,0.59604 1.19126,1.11293 1.8043,1.16475 0.109141,0.009 0.198438,-1.0548 0.198438,-2.36448 z m 31.523017,-3.983227 c -0.37438,-0.308121 -0.56144,-0.676111 -0.46777,-0.9202 0.13954,-0.363642 0.23766,-0.364563 0.92584,-0.0087 0.73184,0.378451 0.7775,0.369134 0.92718,-0.189185 0.24478,-0.913089 0.20892,-0.984116 -0.49681,-0.984116 -0.48507,0 -0.66146,-0.141111 -0.66146,-0.529167 0,-0.428373 0.17639,-0.529166 0.92604,-0.529166 0.89642,0 0.92556,-0.03174 0.9108,-0.992188 -0.008,-0.545703 -0.10564,-1.468437 -0.21612,-2.050521 -0.15337,-0.80802 -0.0943,-1.214779 0.24956,-1.719791 0.24774,-0.363802 0.63658,-1.107943 0.86408,-1.653646 l 0.41364,-0.992188 h -1.72662 c -1.59402,0 -1.84107,-0.08195 -3.21664,-1.06697 -0.8195,-0.586833 -2.11415,-1.248414 -2.877,-1.470181 -0.81055,-0.235634 -1.44835,-0.589422 -1.53462,-0.851259 -0.0812,-0.246427 -0.5472,-0.91949 -1.03557,-1.495698 l -0.88795,-1.047649 -0.76344,1.641049 c -0.60247,1.295022 -0.93576,1.698598 -1.58066,1.913977 -0.44946,0.15011 -1.17411,0.537924 -1.61033,0.861808 l -0.79311,0.588881 0.4814,0.791848 c 0.44941,0.73923 0.45147,0.802347 0.031,0.949854 -0.2782,0.09759 -0.61902,-0.05017 -0.891273,-0.386391 -0.376234,-0.464629 -0.503423,-0.492448 -0.868027,-0.189853 -0.581558,0.48265 -0.537082,1.012967 0.101966,1.215793 0.565313,0.179423 0.708788,0.7838 0.252948,1.065524 -0.15192,0.09389 -0.563956,-0.01782 -0.915636,-0.24825 -0.631523,-0.41379 -0.643505,-0.405318 -0.970502,0.6861 -0.203591,0.679526 -0.233069,1.144856 -0.07655,1.208403 0.139993,0.05684 3.469224,1.98287 7.398284,4.280072 l 7.14375,4.176729 0.79375,-0.770737 0.79375,-0.770737 z m -7.34215,-4.370523 c -0.22796,-0.908284 0.15637,-1.260436 1.01806,-0.932822 0.87778,0.333732 1.12018,0.746927 0.72062,1.228367 -0.54064,0.651438 -1.5438,0.48092 -1.73868,-0.295545 z m 5.77423,0.192604 c -0.18683,-0.118546 -0.26927,-0.399028 -0.18322,-0.623291 0.0861,-0.224264 -0.0424,-0.606605 -0.28542,-0.849646 -0.38434,-0.384338 -0.51555,-0.394134 -1.0074,-0.07521 -0.64598,0.418852 -1.22697,0.312158 -1.22697,-0.225322 0,-0.913331 2.26989,-1.238081 3.0017,-0.429448 0.24083,0.26612 0.43788,0.920964 0.43788,1.455209 0,0.991135 -0.13575,1.128939 -0.73657,0.747711 z m -5.55625,-3.175 c -0.18683,-0.118546 -0.26928,-0.399028 -0.18322,-0.623291 0.0861,-0.224264 -0.0424,-0.606605 -0.28542,-0.849646 -0.39206,-0.392055 -0.50812,-0.398501 -1.02907,-0.05716 -0.36079,0.236398 -0.72779,0.297836 -0.95187,0.159347 -0.60106,-0.371475 0.45139,-1.316026 1.46636,-1.316026 1.09066,0 1.71979,0.709348 1.71979,1.939063 0,0.991135 -0.13575,1.128939 -0.73657,0.747711 z m -8.713786,4.101086 c 0.468268,-0.195739 1.007848,-0.544546 1.199066,-0.775125 0.304657,-0.36737 0.03089,-0.605669 -2.212871,-1.926193 -2.734715,-1.609466 -3.016926,-1.613058 -3.025538,-0.03851 -0.006,1.10187 0.65125,2.167873 1.63586,2.653116 1.071422,0.528027 1.325763,0.537203 2.403483,0.08671 z"
         id="path1" /></g></g></svg>
